<?xml version="1.0" encoding="UTF-8"?>
<svg version="1.1" xmlns="http://www.w3.org/2000/svg" width="500" height="597">
<path d="M0 0 C0.99 0 1.98 0 3 0 C3.39155273 0.76328613 3.78310547 1.52657227 4.18652344 2.31298828 C27.71324758 48.12348939 54.05276453 91.76076779 83.625 133.9375 C114.82303903 178.48385429 114.82303903 178.48385429 128 202 C128.6177832 203.07217773 128.6177832 203.07217773 129.24804688 204.16601562 C135.01240037 214.24680444 137.93811515 221.93182832 135.13671875 233.59375 C124.37685656 272.2133558 103.45734887 309.93154635 83.44824219 344.46630859 C81.5958167 347.70711636 79.82336682 350.98769403 78.05273438 354.27368164 C71.16290826 367.03974438 63.59819048 379.38538034 56.00146484 391.73779297 C54.276859 394.54874482 52.56622022 397.36730537 50.86328125 400.19140625 C43.85839507 411.74485921 36.4248376 423.00594493 28.9375 434.25 C28.18555862 435.38066895 28.18555862 435.38066895 27.41842651 436.53417969 C17.94563925 450.76148986 8.19943437 464.79890819 -1.9375 478.5625 C-2.51467773 479.34641113 -3.09185547 480.13032227 -3.68652344 480.93798828 C-8.59313083 487.55002236 -13.74318457 493.93855335 -18.9765625 500.29296875 C-21.77399512 503.69842379 -24.46335689 507.17546962 -27.125 510.6875 C-31.36216349 516.24319735 -35.81091621 521.57795113 -40.3515625 526.88671875 C-42.75736114 529.70214402 -45.10452263 532.56128421 -47.4375 535.4375 C-54.96665262 544.67721145 -62.74321354 553.71211068 -70.76953125 562.5234375 C-72.63562357 564.59542091 -74.47375402 566.6861676 -76.3046875 568.7890625 C-99.8270513 595.70676282 -99.8270513 595.70676282 -108.5 597.875 C-120.24664042 594.9383399 -128.64356018 585.21356339 -137 577 C-138.24571777 575.77700195 -138.24571777 575.77700195 -139.51660156 574.52929688 C-142.1847486 571.90150175 -144.84464002 569.26571375 -147.5 566.625 C-148.33644043 565.79339355 -149.17288086 564.96178711 -150.03466797 564.10498047 C-154.34089467 559.78666005 -158.49571385 555.39783422 -162.47167969 550.7734375 C-164.55122834 548.36036379 -166.71357639 546.02722286 -168.875 543.6875 C-173.01925965 539.1482504 -176.92578398 534.46541704 -180.78515625 529.68359375 C-182.95632827 527.05291443 -185.20241357 524.52057576 -187.5 522 C-192.20616382 516.82812206 -196.60666812 511.4379003 -201 506 C-202.41553248 504.26990474 -203.83221453 502.54074945 -205.25 500.8125 C-205.9925 499.90371094 -206.735 498.99492187 -207.5 498.05859375 C-208.81627729 496.44821076 -210.13294981 494.83814612 -211.453125 493.23095703 C-219.24668527 483.74239581 -226.81899215 474.11383489 -234.23291016 464.32617188 C-236.12025145 461.8417027 -238.01813902 459.36555589 -239.91796875 456.890625 C-251.94514415 441.20614746 -263.54522499 425.27453124 -274.67480469 408.94140625 C-276.41382241 406.3937517 -278.16389719 403.85380017 -279.91430664 401.31396484 C-281.77685296 398.6101917 -283.63502079 395.90342448 -285.49267578 393.19628906 C-286.51391349 391.708266 -287.53574157 390.22064796 -288.55810547 388.73339844 C-297.22364399 376.11903987 -305.75638542 363.41797465 -314.25 350.6875 C-314.75147552 349.93658081 -315.25295105 349.18566162 -315.7696228 348.4119873 C-325.6518934 333.60870885 -335.49103325 318.78048003 -344.625 303.5 C-345.25889648 302.44047119 -345.89279297 301.38094238 -346.54589844 300.28930664 C-350.24025003 294.0719258 -353.84862772 287.82032205 -357.25 281.4375 C-357.76941162 280.46683594 -357.76941162 280.46683594 -358.29931641 279.4765625 C-359.2413178 277.6677675 -360.13425709 275.84642066 -361 274 C-361.29583984 273.37754395 -361.59167969 272.75508789 -361.89648438 272.11376953 C-364.44684228 266.16739308 -365.31405913 260.03261872 -363.27636719 253.77929688 C-362.25177895 251.52417302 -361.10751419 249.39844508 -359.875 247.25 C-359.43414062 246.44852539 -358.99328125 245.64705078 -358.5390625 244.82128906 C-352.81898855 234.60294267 -346.42776236 224.78246039 -340 215 C-339.53029785 214.28295898 -339.0605957 213.56591797 -338.57666016 212.82714844 C-330.56325852 200.61995685 -322.24927007 188.61283556 -313.8503418 176.66870117 C-302.16441207 160.0422227 -291.00473341 143.08353854 -280 126 C-279.50000488 125.22575684 -279.00000977 124.45151367 -278.48486328 123.65380859 C-265.12645982 102.92251776 -253.06009948 81.61803485 -241.86230469 59.64794922 C-238.85827072 53.75643604 -235.82009511 47.88246575 -232.78585815 42.00646973 C-231.76096949 40.02124803 -230.73696976 38.03556996 -229.71313477 36.04980469 C-225.09493448 27.09644622 -220.43303498 18.16695374 -215.72265625 9.26171875 C-214.80040124 7.51549894 -213.88315773 5.76631547 -213 4 C-209.69195336 4.22206795 -208.87550304 5.13985431 -206.625 7.66796875 C-205.74107315 8.83443469 -204.86665235 10.0081429 -204 11.1875 C-203.02619701 12.47084859 -202.0495421 13.75203724 -201.0703125 15.03125 C-200.56661133 15.68996094 -200.06291016 16.34867188 -199.54394531 17.02734375 C-197.08680145 20.16676854 -194.48854928 23.17804717 -191.875 26.1875 C-188.28854945 30.32571218 -184.75661514 34.49127676 -181.3125 38.75 C-177.75437367 43.13515029 -174.02799414 47.32523455 -170.22265625 51.49609375 C-168.0379395 53.95725971 -165.98500576 56.48660566 -163.9375 59.0625 C-158.02610773 66.36662867 -151.48010449 73.07423606 -145.00585938 79.87646484 C-142.52664362 82.50112632 -140.08781228 85.16105743 -137.65039062 87.82446289 C-133.260917 92.61327472 -128.89480977 97.26421453 -123.88671875 101.421875 C-122.50141024 102.58060096 -121.15471027 103.78589099 -119.83203125 105.015625 C-115.0458497 109.46405536 -110.22100005 113.72670725 -104 116 C-95.96498196 115.2160958 -87.36119542 103.51379693 -81.9375 98.0625 C-81.17373047 97.30259766 -80.40996094 96.54269531 -79.62304688 95.75976562 C-74.8748188 91.00341398 -70.35949296 86.11372588 -66 81 C-65.51345947 80.43514893 -65.02691895 79.87029785 -64.52563477 79.28833008 C-63.11769816 77.653566 -61.7143606 76.01497626 -60.3125 74.375 C-57.19976359 70.7337043 -54.08564545 67.09411282 -50.9453125 63.4765625 C-45.46035885 57.14510507 -40.14229685 50.72547015 -35.00366211 44.109375 C-32.07382905 40.34297459 -29.07157769 36.65294886 -26 33 C-22.42626008 28.74204721 -18.93214064 24.43450805 -15.5 20.0625 C-15.04560547 19.48483887 -14.59121094 18.90717773 -14.12304688 18.31201172 C-11.7722399 15.30996768 -9.45868898 12.28544 -7.1875 9.22265625 C-6.73568359 8.6186499 -6.28386719 8.01464355 -5.81835938 7.39233398 C-4.95716574 6.23785607 -4.10390485 5.07740626 -3.25976562 3.91040039 C-2.09375 2.3515625 -2.09375 2.3515625 0 0 Z " fill="#070001" transform="translate(364,0)"/>
<path d="M0 0 C3.41922573 3.25689625 6.1649622 6.46727006 8.71484375 10.4375 C9.39393799 11.48695801 10.07303223 12.53641602 10.77270508 13.61767578 C11.30198105 14.44480072 11.30198105 14.44480072 11.84194946 15.28863525 C12.95724276 17.03084025 14.08034212 18.76777103 15.20581055 20.50341797 C16.73972606 22.86919964 18.27162632 25.23626143 19.80175781 27.60449219 C35.4209814 51.75443748 52.01950317 75.21734204 72 96 C72.54221191 96.56412598 73.08442383 97.12825195 73.64306641 97.70947266 C75.35723106 99.48202498 77.08216095 101.24324168 78.8125 103 C79.33972656 103.54035889 79.86695313 104.08071777 80.41015625 104.63745117 C83.67448449 107.90847706 86.87039672 110.84073031 91 113 C95.83193603 112.92665473 98.22464682 111.33978627 101.59115601 107.94967651 C102.39294785 107.10446945 102.39294785 107.10446945 103.2109375 106.2421875 C104.06868271 105.37027267 104.06868271 105.37027267 104.9437561 104.48074341 C106.76637788 102.62364169 108.57110418 100.75027993 110.375 98.875 C112.75315117 96.43032712 115.13793697 93.99218674 117.5234375 91.5546875 C118.09406921 90.9692366 118.66470093 90.38378571 119.25262451 89.78059387 C122.82220328 86.13645615 126.484699 82.67942064 130.38134766 79.3828125 C132.70885281 77.39442801 134.85326863 75.24277404 137 73.0625 C137.763125 72.29035156 138.52625 71.51820313 139.3125 70.72265625 C140.1478125 69.86994141 140.1478125 69.86994141 141 69 C144.60596445 70.20198815 144.95485999 71.06992083 146.890625 74.234375 C147.43243408 75.11246826 147.97424316 75.99056152 148.5324707 76.89526367 C149.09925537 77.83732666 149.66604004 78.77938965 150.25 79.75 C151.11854614 81.18339722 151.11854614 81.18339722 152.00463867 82.64575195 C153.15539103 84.55506839 154.30092198 86.46754261 155.44091797 88.38330078 C156.74805797 90.57715084 158.07585313 92.75626687 159.41015625 94.93359375 C163.20411692 101.4230583 165.63506191 106.48086662 164 114 C157.75328704 136.48278158 144.46362023 157.49995141 132.57666016 177.35498047 C131.16205316 179.72813814 129.76814794 182.11133342 128.38671875 184.50390625 C115.95988158 206.00686255 102.02959654 226.52498086 88 247 C84.12843102 245.21118173 81.496687 242.72662354 78.5625 239.6875 C77.86543945 238.9769043 77.86543945 238.9769043 77.15429688 238.25195312 C75.76677242 236.83733614 74.38336493 235.41868488 73 234 C70.23356279 231.21107143 67.43973209 228.45451668 64.6171875 225.72265625 C56.31474486 217.63715518 48.87041193 209.32639894 42 200 C41.57912109 199.43990234 41.15824219 198.87980469 40.72460938 198.30273438 C33.71655933 188.9694327 27.76490482 179.13819316 22 169 C21.23719143 167.66524326 20.474183 166.3306007 19.7109375 164.99609375 C19.14632813 164.00738281 18.58171875 163.01867187 18 162 C17.0149117 186.97675507 38.42301948 212.33791185 54 230 C54.60199219 230.70125 55.20398438 231.4025 55.82421875 232.125 C59.4891056 236.38443266 63.27471503 240.53745556 67.0625 244.6875 C67.80487915 245.50831055 67.80487915 245.50831055 68.56225586 246.34570312 C71.82229851 249.89484287 75.23766815 252.98678029 79 256 C78.45159007 260.00418598 77.32444915 262.3372392 74.859375 265.51953125 C74.20751221 266.3688623 73.55564941 267.21819336 72.8840332 268.09326172 C72.17980225 268.99061035 71.47557129 269.88795898 70.75 270.8125 C70.02707764 271.74594238 69.30415527 272.67938477 68.55932617 273.64111328 C62.16647104 281.86441631 55.68224896 290.00985964 49 298 C48.46810059 298.63631348 47.93620117 299.27262695 47.38818359 299.92822266 C41.04940088 307.46968044 34.49284667 314.66815316 27.46191406 321.57006836 C24.02154916 324.94986346 20.79824727 328.43415444 17.66796875 332.10546875 C13.19449778 337.18657747 8.33166573 341.91541228 3.1875 346.3125 C-0.33281429 349.3229275 -3.57216014 352.57028594 -6.8125 355.875 C-12.21981061 361.3546236 -17.90829313 366.2832784 -24 371 C-24.96421875 371.78117187 -25.9284375 372.56234375 -26.921875 373.3671875 C-27.87578125 374.11226563 -28.8296875 374.85734375 -29.8125 375.625 C-30.66457031 376.29789062 -31.51664063 376.97078125 -32.39453125 377.6640625 C-35.82427528 379.4226419 -37.34732861 379.13326471 -41 378 C-51.35913148 372.25577097 -60.25804301 363.89521689 -69 356 C-69.55252441 355.50532227 -70.10504883 355.01064453 -70.67431641 354.50097656 C-80.26942226 345.87661543 -89.36877805 336.73360937 -98.5 327.625 C-99.11459076 327.01308807 -99.72918152 326.40117615 -100.36239624 325.77072144 C-112.20314466 313.96911729 -112.20314466 313.96911729 -117.51855469 307.7265625 C-120.03892357 304.78917807 -122.71974781 302.002433 -125.375 299.1875 C-130.01182743 294.23237458 -134.42841125 289.173561 -138.6640625 283.8671875 C-140.45762365 281.66572616 -142.27779887 279.51733082 -144.1484375 277.3828125 C-144.69298584 276.75955078 -145.23753418 276.13628906 -145.79858398 275.49414062 C-146.86565084 274.27717893 -147.93783882 273.06468244 -149.01586914 271.85742188 C-151.75921622 268.71906539 -153.73218911 266.05395818 -155 262 C-154.37339478 261.41883423 -154.37339478 261.41883423 -153.73413086 260.82592773 C-151.80063347 259.03116619 -149.869062 257.2343442 -147.9375 255.4375 C-147.28072266 254.82841797 -146.62394531 254.21933594 -145.94726562 253.59179688 C-138.90688026 247.03695532 -132.2554832 240.30826511 -126 233 C-125.18660156 232.07574219 -124.37320313 231.15148437 -123.53515625 230.19921875 C-106.50262766 210.6943768 -89.04768185 186.43607176 -86 160 C-86.66 160 -87.32 160 -88 160 C-88.23976562 160.82886719 -88.47953125 161.65773438 -88.7265625 162.51171875 C-90.2129894 166.58343415 -92.16218486 170.09876274 -94.375 173.8125 C-94.81126709 174.54807129 -95.24753418 175.28364258 -95.69702148 176.04150391 C-105.49742008 192.30467196 -117.13960062 207.05681958 -130 221 C-130.56025879 221.61069336 -131.12051758 222.22138672 -131.69775391 222.85058594 C-139.15052749 230.96124599 -146.59896745 238.8576059 -155 246 C-156.07121094 246.92619141 -156.07121094 246.92619141 -157.1640625 247.87109375 C-158.76908337 249.25550419 -160.38326392 250.62928898 -162 252 C-165.59339967 250.55153556 -167.09014015 248.84341743 -169.1796875 245.6171875 C-169.77160889 244.70960693 -170.36353027 243.80202637 -170.97338867 242.86694336 C-171.91468628 241.3859314 -171.91468628 241.3859314 -172.875 239.875 C-173.53411377 238.84963135 -174.19322754 237.8242627 -174.87231445 236.76782227 C-185.87708486 219.50350588 -195.92864803 201.67629508 -205.58837891 183.63085938 C-206.94799605 181.09692054 -208.32280718 178.57171899 -209.69921875 176.046875 C-220.26909081 156.4708241 -230.23684794 135.92710543 -237.08203125 114.7265625 C-237.73615617 112.1156694 -237.73615617 112.1156694 -239 111 C-239.73150422 105.23609931 -237.61993777 101.6809258 -234.8125 96.875 C-234.37413818 96.10816895 -233.93577637 95.34133789 -233.48413086 94.55126953 C-229.82431039 88.235712 -225.98230977 82.03193714 -222.0625 75.875 C-221.50731689 74.99183105 -220.95213379 74.10866211 -220.38012695 73.19873047 C-219.85378662 72.38807129 -219.32744629 71.57741211 -218.78515625 70.7421875 C-218.08724976 69.65719971 -218.08724976 69.65719971 -217.37524414 68.55029297 C-216.92141357 68.03869629 -216.46758301 67.52709961 -216 67 C-213 67 -213 67 -211.01953125 68.72265625 C-210.29121094 69.49480469 -209.56289062 70.26695312 -208.8125 71.0625 C-206.18723166 73.82967473 -203.52637352 76.42313814 -200.61328125 78.87890625 C-196.55821301 82.38444037 -192.82720435 86.15972341 -189.0859375 89.9921875 C-188.46343613 90.62730759 -187.84093475 91.26242767 -187.1995697 91.91679382 C-184.59342743 94.57712405 -181.98889717 97.23860239 -179.40332031 99.91894531 C-177.49644785 101.89239188 -175.57405533 103.84955081 -173.6484375 105.8046875 C-173.07016205 106.41190643 -172.4918866 107.01912537 -171.89608765 107.64474487 C-168.45529549 111.10791596 -166.12370246 112.92751209 -161 113 C-158.64030599 111.87754684 -158.64030599 111.87754684 -156.625 110 C-155.85671875 109.34902344 -155.0884375 108.69804687 -154.296875 108.02734375 C-153.15992188 107.02380859 -153.15992188 107.02380859 -152 106 C-151.30390625 105.42378906 -150.6078125 104.84757812 -149.890625 104.25390625 C-145.82051265 100.83848251 -142.26371877 97.1959366 -138.83203125 93.14453125 C-136.85871713 90.83461771 -134.80860663 88.60911838 -132.75 86.375 C-127.6931693 80.76200349 -123.04324132 74.87279977 -118.44580078 68.8828125 C-117.48396311 67.63024713 -116.51880102 66.38022738 -115.55029297 65.1328125 C-107.71281566 55.02872941 -100.65008259 44.53537867 -93.76660156 33.76367188 C-90.54769814 28.72801865 -87.30902983 23.70537433 -84.0625 18.6875 C-83.44785889 17.72706787 -82.83321777 16.76663574 -82.19995117 15.77709961 C-78.78055316 10.49384749 -75.22020378 5.67121793 -71 1 C-67.42708036 2.68294796 -65.04770009 4.69153217 -62.1875 7.4375 C-57.68066439 11.61027098 -53.01990332 15.37544637 -48.0625 19 C-47.42401123 19.46849365 -46.78552246 19.9369873 -46.12768555 20.41967773 C-39.25241832 25.45515366 -39.25241832 25.45515366 -31 26 C-22.45702208 21.52447998 -15.40250525 13.91467495 -8.43017578 7.33300781 C-5.702044 4.79022879 -2.85883773 2.39344554 0 0 Z " fill="#E30021" transform="translate(292,124)"/>
<path d="M0 0 C1.25554687 -0.00773438 2.51109375 -0.01546875 3.8046875 -0.0234375 C5.01125 -0.02085937 6.2178125 -0.01828125 7.4609375 -0.015625 C8.52876465 -0.01336914 9.5965918 -0.01111328 10.69677734 -0.00878906 C13.70227779 0.25682962 15.90231004 0.98389573 18.625 2.25 C18.17081787 6.41333615 17.71135568 10.57303234 17.18139648 14.72753906 C15.67244153 26.6450529 14.81446701 38.57626165 14.0625 50.5625 C13.99807709 51.56902618 13.93365417 52.57555237 13.86727905 53.61257935 C12.51438854 74.79834508 11.29992268 96.0116149 11.625 117.25 C17.31778767 111.83642263 22.40725446 106.10822118 27.27783203 99.94775391 C28.22384277 98.75555407 29.17588648 97.56812852 30.13232422 96.38427734 C43.10985769 80.32040763 54.82738797 63.25462926 65.15161133 45.36254883 C65.95293271 43.97804467 66.78503131 42.6114038 67.625 41.25 C67.955 41.25 68.285 41.25 68.625 41.25 C69.11222685 48.44546326 68.27754149 53.53440262 65 59.9375 C64.60538574 60.73639648 64.21077148 61.53529297 63.80419922 62.35839844 C55.59441148 78.56642956 45.74904491 93.90147712 34.625 108.25 C33.66511525 109.50892451 32.70548444 110.76804269 31.74609375 112.02734375 C27.53759623 117.50799572 23.35557657 122.9275839 18.2578125 127.625 C12.46593841 133.25091731 12.46593841 133.25091731 10.98068237 140.99720764 C10.99551666 141.71404221 11.01035095 142.43087677 11.02563477 143.16943359 C11.02169205 143.94130508 11.01774933 144.71317657 11.01368713 145.50843811 C11.00698882 148.05577058 11.03615991 150.60129674 11.06640625 153.1484375 C11.07066582 154.94324397 11.07298599 156.73805598 11.07347107 158.53286743 C11.07963758 162.30406554 11.10230738 166.0746701 11.13793945 169.84570312 C11.18263182 174.60609342 11.19777467 179.36594252 11.20191383 184.12652206 C11.22302398 202.82746715 11.30408024 221.43964363 13.448349 240.04214478 C13.66660633 242.77001262 13.625 245.51341468 13.625 248.25 C-4.195 248.25 -22.015 248.25 -40.375 248.25 C-39.900625 242.701875 -39.42625 237.15375 -38.9375 231.4375 C-37.61560485 215.06601175 -36.72417333 198.74397916 -36.50593567 182.32054138 C-36.43089589 177.1498502 -36.25639188 171.98855056 -36.04533386 166.82170105 C-35.89684954 162.92158995 -35.7972468 159.02106755 -35.70639038 155.11923218 C-35.65279723 153.22992807 -35.58021862 151.34105199 -35.48721313 149.45327759 C-34.62708478 138.55961175 -34.62708478 138.55961175 -38.6550293 128.83935547 C-41.31167189 126.00911673 -44.33704487 123.65950351 -47.375 121.25 C-49.6521825 118.74843857 -51.67139383 116.08943761 -53.6875 113.375 C-54.22036621 112.66649902 -54.75323242 111.95799805 -55.30224609 111.22802734 C-91.72409602 62.19576095 -91.72409602 62.19576095 -91.375 41.25 C-88.08991802 44.33214029 -86.12900692 47.98465051 -83.9375 51.875 C-78.63676967 61.08080279 -72.65412852 69.690522 -66.375 78.25 C-65.95299316 78.8265332 -65.53098633 79.40306641 -65.09619141 79.99707031 C-55.93184828 92.47189741 -46.3460384 105.2789616 -35.375 116.25 C-35.045 78.63 -34.715 41.01 -34.375 2.25 C-22.6808967 1.01904176 -11.65125784 -0.0750081 0 0 Z " fill="#010000" transform="translate(268.375,162.75)"/>
<path d="M0 0 C4.00172112 0.22917346 5.70615862 0.73876122 8.74609375 3.44140625 C9.65773496 4.4690836 10.55439899 5.51019632 11.4375 6.5625 C11.91413086 7.10608154 12.39076172 7.64966309 12.88183594 8.2097168 C14.26819291 9.79529805 15.63570452 11.39543491 17 13 C18.24826558 14.43900636 19.49797207 15.87676594 20.75 17.3125 C21.29140625 17.93769531 21.8328125 18.56289062 22.390625 19.20703125 C24.55410717 21.61731842 26.85667633 23.86928867 29.16870117 26.13598633 C30.8891623 27.88718227 32.47912816 29.69084803 34.06640625 31.5625 C38.60939038 36.78819603 43.52053708 41.62905617 48.4375 46.5 C49.35982422 47.4178125 50.28214844 48.335625 51.23242188 49.28125 C53.48599899 51.52315055 55.74189075 53.762666 58 56 C56.67579054 59.4235144 55.3132598 62.17465968 53.125 65.125 C49.6542831 69.95818841 46.51079702 74.94762826 43.375 80 C30.94951268 99.88117211 16.56567007 118.48233548 1 136 C0.40106934 136.67417969 -0.19786133 137.34835938 -0.81494141 138.04296875 C-18.54832446 157.84944149 -18.54832446 157.84944149 -28 161 C-29.515625 160.05859375 -29.515625 160.05859375 -31.25 158.4375 C-31.94480469 157.79554688 -32.63960937 157.15359375 -33.35546875 156.4921875 C-34.66451172 155.25855469 -34.66451172 155.25855469 -36 154 C-37.20328368 152.89718863 -38.40780876 151.79573088 -39.61328125 150.6953125 C-51.2129626 140.05429449 -51.2129626 140.05429449 -56.1015625 134.06640625 C-57.7749731 132.24493668 -59.47855003 130.65472525 -61.3359375 129.02734375 C-61.93712402 128.49705566 -62.53831055 127.96676758 -63.15771484 127.42041016 C-64.36681516 126.36513124 -65.58827775 125.32381816 -66.82275391 124.29833984 C-68.5 122.83203125 -68.5 122.83203125 -71 120 C-70.77802463 115.76804823 -69.02311578 113.29295888 -66.484375 110 C-61.83698068 103.81726882 -57.52481256 97.44367484 -53.25 91 C-52.85848755 90.41084808 -52.4669751 89.82169617 -52.06359863 89.21469116 C-34.60036286 62.92195338 -18.7322366 36.01813055 -4.49536133 7.84887695 C-3.08799587 5.1676447 -1.58600518 2.5787763 0 0 Z " fill="#E30021" transform="translate(156,61)"/>
<path d="M0 0 C4.3965174 1.46915436 5.787445 4.66130092 7.7578125 8.5625 C8.10236984 9.22131668 8.44692719 9.88013336 8.80192566 10.55891418 C9.53798888 11.96933058 10.26886889 13.3824619 10.99502563 14.79800415 C12.1321154 17.01386587 13.28293771 19.22204802 14.43823242 21.4284668 C15.95427751 24.32455943 17.46645262 27.22260456 18.97509766 30.12255859 C29.72462882 50.74808531 42.30479316 70.03551048 55.1875 89.375 C55.96036346 90.53524689 55.96036346 90.53524689 56.74884033 91.71893311 C63.07639205 101.20938 69.46838799 110.64859573 76 120 C74.17236588 123.96270089 71.58081926 126.71694538 68.5 129.75 C68.00113281 130.25660156 67.50226563 130.76320312 66.98828125 131.28515625 C63.25341139 135 63.25341139 135 61 135 C60.77570313 135.55042969 60.55140625 136.10085937 60.3203125 136.66796875 C58.58906024 139.72583148 56.37762275 141.84821826 53.875 144.3125 C53.38507568 144.795979 52.89515137 145.27945801 52.39038086 145.77758789 C48.92320298 149.17233248 45.34863654 152.41176529 41.66015625 155.5625 C39.6745442 157.28180643 37.81857601 159.10564999 36 161 C30.80710365 159.65863251 27.32348662 157.18345717 23.375 153.6875 C22.76744873 153.15697021 22.15989746 152.62644043 21.53393555 152.07983398 C15.22190472 146.46850026 9.54582429 140.3585744 4 134 C3.54560547 133.48356934 3.09121094 132.96713867 2.62304688 132.43505859 C-13.73633307 113.77477305 -28.68436346 93.47010092 -41.27392578 72.08618164 C-43.86955225 67.70276705 -46.67636271 63.75202976 -49.9609375 59.85058594 C-51 58 -51 58 -50.73147583 56.07116699 C-49.91962951 53.77243172 -49.06599545 52.70723664 -47.33544922 51.01074219 C-46.77751678 50.45626404 -46.21958435 49.90178589 -45.64474487 49.33050537 C-45.03752594 48.74190735 -44.43030701 48.15330933 -43.8046875 47.546875 C-43.17901886 46.92782288 -42.55335022 46.30877075 -41.90872192 45.67095947 C-39.90445148 43.6900847 -37.89034188 41.71960431 -35.875 39.75 C-33.24363477 37.16525847 -30.6163968 34.57638082 -27.9921875 31.984375 C-27.363125 31.36326843 -26.7340625 30.74216187 -26.0859375 30.10223389 C-21.8500258 25.89870813 -17.80843616 21.59781143 -14 17 C-13.00608343 15.83779271 -12.01130487 14.676322 -11.015625 13.515625 C-10.09305895 12.42766896 -9.17117282 11.33913595 -8.25 10.25 C-7.78207031 9.69957031 -7.31414062 9.14914063 -6.83203125 8.58203125 C-4.46307166 5.7835719 -2.15855532 2.96441598 0 0 Z " fill="#E30021" transform="translate(351,61)"/>
<path d="M0 0 C3.2967953 2.77136854 5.0037433 6.45718416 7 10.1875 C11.77770902 18.87693362 17.24943947 26.93266688 23 35 C24.04428321 36.48176211 25.08855376 37.96353315 26.1328125 39.4453125 C39.62448304 58.47108346 54.17991729 76.8261855 72 92 C72.68191406 92.58136719 73.36382812 93.16273438 74.06640625 93.76171875 C76.49038699 95.67263229 78.31681264 96.94744713 81.4375 97.1875 C100.97036057 88.13568657 116.61080733 65.79635739 129 49 C129.82250244 47.89084229 129.82250244 47.89084229 130.66162109 46.75927734 C141.76190014 31.75352567 151.9639645 16.33735932 161 0 C161.33 0 161.66 0 162 0 C163.17288291 12.39672078 160.82549911 20.53824027 154 31 C153.49597656 31.79035645 152.99195313 32.58071289 152.47265625 33.39501953 C109.88074519 99.97679896 109.88074519 99.97679896 85 113 C80.95439717 113.67426714 78.58287876 113.8708889 74.9765625 111.88671875 C72.51951576 110.04621719 70.27241177 108.06552055 68 106 C67.19804199 105.29206299 67.19804199 105.29206299 66.37988281 104.56982422 C58.46223675 97.57937036 51.51507932 90.33546913 45 82 C43.42027617 80.14275712 41.83676743 78.28872867 40.25 76.4375 C26.20877768 59.60547573 13.87708095 41.01820902 3 22 C2.13761719 20.55947266 2.13761719 20.55947266 1.2578125 19.08984375 C-0.35616748 15.12506684 -0.33653294 11.85142131 -0.1875 7.625 C-0.17396484 6.88894531 -0.16042969 6.15289062 -0.14648438 5.39453125 C-0.11144869 3.59603257 -0.05765288 1.79791578 0 0 Z " fill="#050000" transform="translate(176,355)"/>
</svg>
