<?xml version="1.0" standalone="no"?>
<!DOCTYPE svg PUBLIC "-//W3C//DTD SVG 20010904//EN"
 "http://www.w3.org/TR/2001/REC-SVG-20010904/DTD/svg10.dtd">
<svg version="1.0" xmlns="http://www.w3.org/2000/svg"
 width="300.000000pt" height="136.000000pt" viewBox="0 0 300.000000 136.000000"
 preserveAspectRatio="xMidYMid meet">
<metadata>
Created by potrace 1.10, written by Peter Selinger 2001-2011
</metadata>
<g transform="translate(0.000000,136.000000) scale(0.100000,-0.100000)"
fill="#000000" stroke="none">
<path d="M1056 1313 l-24 -48 192 -267 191 -268 108 0 109 0 -19 28 c-10 16
-110 158 -223 315 l-204 287 -53 0 -53 0 -24 -47z"/>
<path d="M1392 1352 c2 -4 104 -148 228 -320 l225 -312 141 0 c78 0 162 3 187
6 l46 7 -157 313 -157 314 -258 0 c-142 0 -257 -4 -255 -8z"/>
<path d="M866 931 l-106 -211 250 0 c156 0 250 4 250 10 0 7 -261 380 -286
409 -1 2 -50 -92 -108 -208z"/>
<path d="M290 589 l-31 -60 188 -264 187 -265 139 0 c110 0 137 3 129 13 -5 6
-107 149 -227 317 -120 168 -218 305 -219 306 0 1 -31 4 -69 7 l-67 6 -30 -60z"/>
<path d="M648 643 l-67 -4 224 -313 c216 -302 225 -313 262 -319 45 -8 393 -9
393 -2 0 3 -72 149 -160 325 l-160 320 -213 -2 c-116 -1 -242 -3 -279 -5z"/>
<path d="M1835 600 l-26 -50 197 -275 196 -275 205 0 c178 0 204 2 201 15 -2
9 -102 155 -223 325 l-220 310 -152 0 -153 0 -25 -50z"/>
<path d="M2442 641 l-52 -6 227 -317 227 -318 71 0 c39 0 74 3 78 6 3 4 -66
150 -154 325 l-159 319 -93 -2 c-50 -1 -116 -4 -145 -7z"/>
<path d="M1707 338 c-105 -195 -167 -328 -155 -333 8 -3 122 -4 256 -3 l242 3
-136 190 c-75 105 -142 198 -149 208 -11 16 -17 10 -58 -65z"/>
<path d="M86 181 c-47 -94 -86 -172 -86 -175 0 -3 95 -6 211 -6 185 0 210 2
205 15 -9 23 -230 334 -238 335 -4 0 -45 -76 -92 -169z"/>
</g>
</svg>
