<?xml version="1.0" standalone="no"?>
<!DOCTYPE svg PUBLIC "-//W3C//DTD SVG 20010904//EN"
 "http://www.w3.org/TR/2001/REC-SVG-20010904/DTD/svg10.dtd">
<svg version="1.0" xmlns="http://www.w3.org/2000/svg"
 width="300.000000pt" height="242.000000pt" viewBox="0 0 300.000000 242.000000"
 preserveAspectRatio="xMidYMid meet">
<metadata>
Created by potrace 1.10, written by Peter Selinger 2001-2011
</metadata>
<g transform="translate(0.000000,242.000000) scale(0.100000,-0.100000)"
fill="#000000" stroke="none">
<path d="M1428 2409 c-21 -5 -61 -22 -90 -38 -85 -48 -145 -59 -294 -53 -130
5 -133 4 -189 -24 -32 -16 -76 -48 -99 -72 -48 -50 -163 -140 -221 -172 -50
-27 -80 -54 -116 -104 -28 -38 -29 -42 -29 -165 0 -160 -13 -247 -40 -280 -11
-15 -28 -39 -38 -55 -9 -16 -36 -51 -59 -77 -88 -102 -183 -270 -212 -379 -22
-81 -46 -810 -28 -872 4 -17 30 -45 64 -70 l56 -43 1316 0 1316 1 60 22 c67
25 126 77 155 137 16 33 20 62 20 136 -1 143 -16 288 -35 328 -43 89 -71 140
-107 188 -103 140 -148 267 -148 414 0 89 -2 96 -41 173 -23 45 -49 90 -58
101 -10 11 -22 32 -29 47 -6 15 -44 63 -84 105 -100 107 -120 146 -129 258 -4
49 -15 106 -24 125 -61 130 -125 203 -223 255 -76 40 -104 43 -150 15 -18 -11
-39 -20 -46 -20 -8 0 -27 -7 -43 -17 -41 -23 -76 -11 -142 50 -84 78 -125 97
-207 96 -38 -1 -86 -5 -106 -10z m-20 -1092 c12 -38 27 -103 32 -144 10 -80
33 -129 63 -139 37 -12 50 14 104 206 20 72 47 110 80 110 13 0 42 -12 64 -27
42 -30 59 -69 59 -140 0 -23 5 -54 11 -70 6 -15 15 -78 18 -140 7 -117 21
-153 62 -153 21 0 53 50 69 109 6 24 21 57 33 72 l21 29 24 -23 c24 -22 82
-135 82 -160 0 -7 4 -17 10 -23 5 -5 24 -59 41 -118 30 -104 31 -115 24 -225
-6 -100 -10 -120 -29 -142 l-23 -26 -674 -8 -675 -7 -27 39 c-24 34 -28 54
-38 167 -7 91 -8 156 0 225 12 112 52 245 74 249 21 4 44 -34 52 -88 8 -57 34
-131 52 -150 13 -13 19 -10 49 25 l34 40 0 166 0 165 29 28 c16 16 34 25 40
22 15 -10 41 -103 41 -148 0 -41 38 -93 63 -85 17 5 37 47 37 79 0 15 5 39 11
55 6 15 15 51 19 78 4 28 13 64 18 80 6 17 16 49 22 72 14 55 35 75 74 71 29
-3 33 -8 54 -71z"/>
</g>
</svg>
